# xmcd CD database file generated by Grip 2.94
# 
# Track frame offsets:
#       150
#       19598
#       37082
#       59431
#       79703
#       98565
#       118765
#       138143
#       149621
#       169276
#       185823
#       201421
# 
# Disc length: 3017 seconds
# 
# Revision: 3
# Processed by: cddbd v1.4PL0 Copyright (c) Steve Scherf et al.
# Submitted via: Grip 2.94
# 
DISCID=af0bc70c
DTITLE=Hamhock and Slide - Cracker Blues
DYEAR=1900
DGENRE=
TTITLE0=Come Into My Kitchen
TTITLE1=Morning Blues
TTITLE2=Starving Box Blues
TTITLE3=Love In Vain
TTITLE4=Statesboro Blues
TTITLE5=Dove
TTITLE6=Kind Hearted Woman Blues
TTITLE7=Scratchin'
TTITLE8=The How Long Blues
TTITLE9=Stranger Blues
TTITLE10=Lonesome Road Blues
TTITLE11=Dreams
EXTD=
EXTT0=
EXTT1=
EXTT2=
EXTT3=
EXTT4=
EXTT5=
EXTT6=
EXTT7=
EXTT8=
EXTT9=
EXTT10=
EXTT11=
PLAYORDER=
